# xmcd CD database file
#
# Track frame offsets:
#	150
#	9611
#	31755
#	53070
#	75665
#	92643
#	114102
#	140093
#	173776
#	195483
#	217242
#	238858
#	279085
#
# Disc length: 3767 seconds
#
# Revision: 0
# Processed by: cddbd v1.5.1PL0 Copyright (c) Steve Scherf et al.
# Submitted via: CDex 1.51
#
DISCID=a80eb50d
DTITLE=White Skull - The XIII Skull
DYEAR=2004
DGENRE=Power Metal
TTITLE0=Space Invaders (Intro)
TTITLE1=The Union
TTITLE2=Top Secret
TTITLE3=Last Navigator
TTITLE4=The Skulls
TTITLE5=Missing Link
TTITLE6=Creature Of The Abyss
TTITLE7=Power Of Blood
TTITLE8=Perfect Design
TTITLE9=The Observers
TTITLE10=Mothman Prophecies
TTITLE11=I Wanna Fly Away
TTITLE12=DATA
EXTD=YEAR: 2004
EXTT0=
EXTT1=
EXTT2=
EXTT3=
EXTT4=
EXTT5=
EXTT6=
EXTT7=
EXTT8=
EXTT9=
EXTT10=
EXTT11=
EXTT12=
PLAYORDER=
